<svg data-v-423bf9ae="" xmlns="http://www.w3.org/2000/svg" viewBox="0 0 198 100" class="iconLeft"><!----><!----><!----><g data-v-423bf9ae="" id="5c1a2816-ca33-4185-8a7f-2c927cdba142" fill="#000000" transform="matrix(5.889206693083646,0,0,5.889206693083646,60.78241717574534,2.3622787088721395)"><path d="M3.63 6.07L3.63 6.07Q4.18 5.29 4.16 4.73L4.16 4.73L4.16 4.73Q4.14 4.34 3.71 4.14L3.71 4.14L3.71 4.14Q3.38 3.99 2.93 3.97L2.93 3.97L2.93 3.97Q1.97 3.93 1.20 4.44L1.20 4.44L1.20 4.44Q0.37 4.98 0.27 5.89L0.27 5.89L0.27 5.89Q0.21 6.45 0.64 7.12L0.64 7.12L0.64 7.12Q0.78 7.33 1.04 7.66L1.04 7.66L1.04 7.66Q1.35 8.05 1.44 8.17L1.44 8.17L1.44 8.17Q2.55 9.73 1.77 10.41L1.77 10.41L1.77 10.41Q1.69 10.48 1.57 10.53L1.57 10.53L1.57 10.53Q1.67 10.49 1.78 10.47L1.78 10.47L1.78 10.47Q1.85 10.45 1.77 10.45L1.77 10.45L1.77 10.45Q1.49 10.43 1.13 10.16L1.13 10.16L1.13 10.16Q0.80 9.91 0.74 9.52L0.74 9.52L0.74 9.52Q0.68 9.15 0.89 8.79L0.89 8.79L0.89 8.79Q0.97 8.65 0.67 8.63L0.67 8.63L0.67 8.63Q0.47 8.63 0.31 8.66L0.31 8.66L0.31 8.66Q-0.40 8.78-0.55 9.05L-0.55 9.05L-0.55 9.05Q-0.98 9.79-0.49 10.40L-0.49 10.40L-0.49 10.40Q-0.03 10.98 0.88 11.04L0.88 11.04L0.88 11.04Q2.00 11.12 3.04 10.33L3.04 10.33L3.04 10.33Q3.62 9.90 3.58 9.21L3.58 9.21L3.58 9.21Q3.54 8.74 3.06 8.02L3.06 8.02L3.06 8.02Q3.10 8.07 2.23 6.88L2.23 6.88L2.23 6.88Q1.78 6.26 1.73 5.78L1.73 5.78L1.73 5.78Q1.66 5.07 2.17 4.58L2.17 4.58L2.17 4.58Q2.23 4.53 2.24 4.52L2.24 4.52L2.24 4.52Q2.28 4.48 2.28 4.48L2.28 4.48L2.28 4.48Q2.31 4.47 2.33 4.46L2.33 4.46L2.33 4.46Q2.19 4.53 2.04 4.55L2.04 4.55L2.04 4.55Q1.90 4.57 2.02 4.55L2.02 4.55L2.02 4.55Q1.93 4.56 2.04 4.56L2.04 4.56L2.04 4.56Q2.48 4.58 2.65 4.93L2.65 4.93L2.65 4.93Q2.86 5.38 2.19 6.33L2.19 6.33L2.19 6.33Q2.09 6.47 2.41 6.48L2.41 6.48L2.41 6.48Q2.63 6.49 2.77 6.47L2.77 6.47L2.77 6.47Q3.43 6.34 3.63 6.07L3.63 6.07ZM7.34 5.97L7.34 5.97Q7.22 6.92 6.81 8.19L6.81 8.19L6.81 8.19Q6.36 9.57 5.83 10.32L5.83 10.32L5.83 10.32Q5.60 10.21 4.95 10.45L4.95 10.45L4.95 10.45Q4.92 10.45 4.89 10.47L4.89 10.47L4.89 10.47Q5.73 6.84 5.85 6.28L5.85 6.28L5.85 6.28Q6.10 5.78 6.34 5.38L6.34 5.38L6.34 5.38Q6.57 5.01 6.79 4.76L6.79 4.76L6.79 4.76Q6.89 4.66 7.02 4.53L7.02 4.53L7.02 4.53Q7.08 4.57 7.15 4.63L7.15 4.63L7.15 4.63Q7.33 4.79 7.38 5.28L7.38 5.28L7.38 5.28Q7.40 5.55 7.34 5.97L7.34 5.97ZM8.74 4.43L8.74 4.43Q8.52 3.87 7.53 3.90L7.53 3.90L7.53 3.90Q6.88 3.93 6.25 4.27L6.25 4.27L6.25 4.27Q6.25 4.25 6.27 4.17L6.27 4.17L6.27 4.17Q6.28 4.11 6.29 4.07L6.29 4.07L6.29 4.07Q6.33 3.82 5.70 3.94L5.70 3.94L5.70 3.94Q5.40 3.99 5.15 4.11L5.15 4.11L5.15 4.11Q4.86 4.24 4.85 4.33L4.85 4.33L4.85 4.33Q4.67 5.33 4.41 6.53L4.41 6.53L4.41 6.53Q4.33 6.71 4.20 6.99L4.20 6.99L4.20 6.99Q4.16 7.09 4.28 7.13L4.28 7.13L4.28 7.13Q4.19 7.53 3.49 10.51L3.49 10.51L3.49 10.51Q3.01 12.56 2.75 13.91L2.75 13.91L2.75 13.91Q2.71 14.16 3.34 14.04L3.34 14.04L3.34 14.04Q3.64 13.99 3.90 13.87L3.90 13.87L3.90 13.87Q4.18 13.73 4.20 13.64L4.20 13.64L4.20 13.64Q4.42 12.52 4.76 11.01L4.76 11.01L4.76 11.01Q5.04 11.14 5.43 11.11L5.43 11.11L5.43 11.11Q6.31 11.02 6.88 10.52L6.88 10.52L6.88 10.52Q7.45 10.02 7.99 8.65L7.99 8.65L7.99 8.65Q8.42 7.55 8.69 6.28L8.69 6.28L8.69 6.28Q8.96 4.98 8.74 4.43L8.74 4.43ZM11.20 8.98L11.20 8.98Q10.93 9.59 10.57 10.07L10.57 10.07L10.57 10.07Q10.47 10.19 10.34 10.32L10.34 10.32L10.34 10.32Q10.21 10.16 10.14 9.83L10.14 9.83L10.14 9.83Q9.93 8.78 10.49 6.77L10.49 6.77L10.49 6.77Q10.72 5.93 11.03 5.26L11.03 5.26L11.03 5.26Q11.14 5.01 11.27 4.80L11.27 4.80L11.27 4.80Q11.70 5.34 11.74 6.34L11.74 6.34L11.74 6.34Q11.80 7.59 11.20 8.98L11.20 8.98ZM12.20 3.95L12.20 3.95Q11.94 3.80 11.27 4.03L11.27 4.03L11.27 4.03Q11.00 4.12 10.84 4.26L10.84 4.26L10.84 4.26Q10.54 4.33 10.35 4.46L10.35 4.46L10.35 4.46Q9.87 4.80 9.46 5.80L9.46 5.80L9.46 5.80Q9.06 6.75 8.83 7.93L8.83 7.93L8.83 7.93Q8.57 9.18 8.65 9.99L8.65 9.99L8.65 9.99Q8.74 10.92 9.37 11.01L9.37 11.01L9.37 11.01Q9.97 11.08 10.64 10.83L10.64 10.83L10.64 10.83Q11.27 10.60 11.72 10.15L11.72 10.15L11.72 10.15Q12.44 9.43 12.87 8.11L12.87 8.11L12.87 8.11Q13.28 6.90 13.23 5.87L13.23 5.87L13.23 5.87Q13.15 4.47 12.20 3.95L12.20 3.95ZM15.64 8.98L15.64 8.98Q15.37 9.59 15.01 10.07L15.01 10.07L15.01 10.07Q14.91 10.19 14.78 10.32L14.78 10.32L14.78 10.32Q14.65 10.16 14.58 9.83L14.58 9.83L14.58 9.83Q14.37 8.78 14.93 6.77L14.93 6.77L14.93 6.77Q15.16 5.93 15.47 5.26L15.47 5.26L15.47 5.26Q15.59 5.01 15.71 4.80L15.71 4.80L15.71 4.80Q16.15 5.34 16.19 6.34L16.19 6.34L16.19 6.34Q16.24 7.59 15.64 8.98L15.64 8.98ZM16.65 3.95L16.65 3.95Q16.38 3.80 15.71 4.03L15.71 4.03L15.71 4.03Q15.44 4.12 15.29 4.26L15.29 4.26L15.29 4.26Q14.98 4.33 14.79 4.46L14.79 4.46L14.79 4.46Q14.31 4.80 13.90 5.80L13.90 5.80L13.90 5.80Q13.51 6.75 13.27 7.93L13.27 7.93L13.27 7.93Q13.01 9.18 13.09 9.99L13.09 9.99L13.09 9.99Q13.18 10.92 13.82 11.01L13.82 11.01L13.82 11.01Q14.42 11.08 15.08 10.83L15.08 10.83L15.08 10.83Q15.72 10.60 16.16 10.15L16.16 10.15L16.16 10.15Q16.88 9.43 17.32 8.11L17.32 8.11L17.32 8.11Q17.73 6.90 17.67 5.87L17.67 5.87L17.67 5.87Q17.60 4.47 16.65 3.95L16.65 3.95ZM23.01 4.50L23.01 4.50Q22.94 4.33 22.42 4.44L22.42 4.44L22.42 4.44Q21.21 4.66 20.39 5.45L20.39 5.45L20.39 5.45Q20.21 5.63 20.04 5.84L20.04 5.84L20.04 5.84Q20.27 4.81 20.38 4.05L20.38 4.05L20.38 4.05Q20.40 3.92 20.02 3.96L20.02 3.96L20.02 3.96Q19.76 3.98 19.59 4.03L19.59 4.03L19.59 4.03Q18.96 4.20 18.92 4.44L18.92 4.44L18.92 4.44Q18.79 5.31 18.23 7.64L18.23 7.64L18.23 7.64Q17.75 9.64 17.66 10.86L17.66 10.86L17.66 10.86Q17.64 11.04 18.33 10.89L18.33 10.89L18.33 10.89Q19.03 10.75 19.11 10.53L19.11 10.53L19.11 10.53Q19.97 8.17 20.44 7.23L20.44 7.23L20.44 7.23Q20.93 6.24 21.42 5.65L21.42 5.65L21.42 5.65Q21.54 5.50 21.69 5.36L21.69 5.36L21.69 5.36Q21.90 6.30 21.51 8.51L21.51 8.51L21.51 8.51Q20.95 11.60 20.64 12.71L20.64 12.71L20.64 12.71Q20.58 12.96 21.23 12.84L21.23 12.84L21.23 12.84Q21.53 12.78 21.79 12.67L21.79 12.67L21.79 12.67Q22.07 12.54 22.09 12.45L22.09 12.45L22.09 12.45Q22.39 11.34 22.96 8.18L22.96 8.18L22.96 8.18Q23.17 7.02 23.21 6.25L23.21 6.25L23.21 6.25Q23.28 5.17 23.01 4.50L23.01 4.50Z"></path></g><defs data-v-423bf9ae=""><linearGradient data-v-423bf9ae="" gradientTransform="rotate(25)" id="d61ac0f5-4ba5-4572-a531-c914de73ba31" x1="0%" y1="0%" x2="100%" y2="0%"><stop data-v-423bf9ae="" offset="0%" style="stop-color: rgb(148, 80, 105); stop-opacity: 1;"></stop><stop data-v-423bf9ae="" offset="100%" style="stop-color: rgb(134, 200, 102); stop-opacity: 1;"></stop></linearGradient></defs><g data-v-423bf9ae="" id="01bf327e-a40a-43a8-a3ac-8881d8ab7dd9" transform="matrix(1.1083114624023438,0,0,1.1083114624023438,-36.79616949365591,0.6969823648232918)" stroke="none" fill="url(#d61ac0f5-4ba5-4572-a531-c914de73ba31)"><path d="M50.396 99.998c-2.909 0-6.503-10.201-6.562-16.608-.035-3.853.405-9.604.832-15.165.406-5.308.789-10.32.697-12.918-.198-5.478-2.172-9.224-4.077-12.165-.362-.56-.838-1.186-1.391-1.911-2.736-3.6-6.874-9.039-6.481-18.489.522-12.583 6.86-20.974 16.956-22.448a4.5 4.5 0 0 1 .645-.044c2.36 0 6.154 1.502 9.313 4.857 2.984 3.172 6.413 9.101 5.793 19.34-.369 6.113-3.404 11.049-6.082 15.403-1.381 2.247-2.686 4.368-3.324 6.25-2.082 6.152-.59 20.75.3 29.473.317 3.091.565 5.533.588 6.857.2 12.135-4.226 15.627-5.892 16.941-.118.092-.219.17-.296.238-.28.252-.644.389-1.019.389zm.619-97.26c-.104 0-.199.006-.285.018-8.818 1.287-14.362 8.796-14.832 20.089-.355 8.555 3.304 13.366 5.976 16.88.558.733 1.084 1.425 1.498 2.064 1.967 3.038 4.254 7.31 4.475 13.428.098 2.738-.291 7.818-.702 13.197-.422 5.51-.859 11.207-.824 14.952.055 5.829 2.81 12.173 4.092 13.86 1.545-1.248 4.873-4.432 4.703-14.754-.021-1.218-.266-3.613-.574-6.646-.971-9.5-2.438-23.857-.182-30.522.728-2.148 2.104-4.385 3.561-6.755 2.525-4.105 5.387-8.759 5.719-14.25.566-9.354-2.473-14.671-5.121-17.485-2.816-2.991-6.031-4.076-7.504-4.076z"></path><path d="M49.216 39.476c-5.502 0-8.889-5.368-9.041-5.613l.846-.523c.037.059 3.708 5.86 9.282 5.062 5.611-.803 7.443-5.765 7.461-5.816l.937.334c-.081.228-2.058 5.58-8.257 6.466-.42.061-.83.09-1.228.09z"></path></g><!----></svg>