<svg data-v-423bf9ae="" xmlns="http://www.w3.org/2000/svg" viewBox="0 0 40 120" class="iconLeft"><!----><!----><!---->

    <defs data-v-423bf9ae="">
        <linearGradient data-v-423bf9ae="" gradientTransform="rotate(25)" id="d61ac0f5-4ba5-4572-a531-c914de73ba31"
                        x1="0%" y1="0%" x2="100%" y2="0%">
            <stop data-v-423bf9ae="" offset="0%" style="stop-color: rgb(148, 80, 105); stop-opacity: 1;"></stop>
            <stop data-v-423bf9ae="" offset="100%" style="stop-color: rgb(134, 200, 102); stop-opacity: 1;"></stop>
        </linearGradient>
    </defs>
    <g data-v-423bf9ae="" id="01bf327e-a40a-43a8-a3ac-8881d8ab7dd9"
       transform="matrix(1.1083114624023438,0,0,1.1083114624023438,-36.79616949365591,0.6969823648232918)" stroke="none"
       fill="url(#d61ac0f5-4ba5-4572-a531-c914de73ba31)">
        <path d="M49.216 39.476c-5.502 0-8.889-5.368-9.041-5.613l.846-.523c.037.059 3.708 5.86 9.282 5.062 5.611-.803 7.443-5.765 7.461-5.816l.937.334c-.081.228-2.058 5.58-8.257 6.466-.42.061-.83.09-1.228.09z"></path>
        <path d="M50.396 99.998c-2.909 0-6.503-10.201-6.562-16.608-.035-3.853.405-9.604.832-15.165.406-5.308.789-10.32.697-12.918-.198-5.478-2.172-9.224-4.077-12.165-.362-.56-.838-1.186-1.391-1.911-2.736-3.6-6.874-9.039-6.481-18.489.522-12.583 6.86-20.974 16.956-22.448a4.5 4.5 0 0 1 .645-.044c2.36 0 6.154 1.502 9.313 4.857 2.984 3.172 6.413 9.101 5.793 19.34-.369 6.113-3.404 11.049-6.082 15.403-1.381 2.247-2.686 4.368-3.324 6.25-2.082 6.152-.59 20.75.3 29.473.317 3.091.565 5.533.588 6.857.2 12.135-4.226 15.627-5.892 16.941-.118.092-.219.17-.296.238-.28.252-.644.389-1.019.389zm.619-97.26c-.104 0-.199.006-.285.018-8.818 1.287-14.362 8.796-14.832 20.089-.355 8.555 3.304 13.366 5.976 16.88.558.733 1.084 1.425 1.498 2.064 1.967 3.038 4.254 7.31 4.475 13.428.098 2.738-.291 7.818-.702 13.197-.422 5.51-.859 11.207-.824 14.952.055 5.829 2.81 12.173 4.092 13.86 1.545-1.248 4.873-4.432 4.703-14.754-.021-1.218-.266-3.613-.574-6.646-.971-9.5-2.438-23.857-.182-30.522.728-2.148 2.104-4.385 3.561-6.755 2.525-4.105 5.387-8.759 5.719-14.25.566-9.354-2.473-14.671-5.121-17.485-2.816-2.991-6.031-4.076-7.504-4.076z"></path>
    </g><!---->
</svg>